<svg width="1000" height="1000" xmlns="http://www.w3.org/2000/svg" version="1.1" enable-background="new 0 0 1000 1000" xml:space="preserve">
 <metadata>Svg Vector Icons : http://www.onlinewebfonts.com/icon</metadata>

 <g>
  <title>Layer 1</title>
  <g id="svg_1">
   <path d="m893.4,330.3l-84.9,0c-4,0 -7.8,1.2 -11.1,3l-38.3,-115.3c-12.3,-65.6 -58.4,-97.2 -115.2,-97.2l-359.9,0c-65.1,0 -104.8,42.5 -115.2,97.2l-38.5,115.6c-3.5,-2.1 -7.4,-3.3 -11.8,-3.3l-84.9,0c-13,0 -23.6,10.6 -23.6,23.7l0,20.6c0,13 10.6,23.6 23.6,23.6l32.1,5.5c-10.1,19.8 -15.9,42.6 -15.9,69l-11.9,136.1c0,3.9 0.2,7.9 0.7,12c-0.5,2.4 -0.7,5 -0.7,7.7l0,163.8c0,23.4 18.9,42.2 42.2,42.2l64.5,0c23.4,0 42.2,-18.9 42.2,-42.2l0,-52.7l345.2,0c-12.3,0 -128.1,-336.6 329.9,-336.2c9.7,0 31.5,-5.4 31.5,-5.4c13,0 23.6,-10.6 23.6,-23.6l0,-20.6c0,-12.9 -10.6,-23.5 -23.6,-23.5l0,0l0,0zm-696.1,-24.2l28.1,-74.8l0.4,-1.7c2.8,-15.1 9,-17.9 18.3,-29.6l440.4,0c9.4,12 15.1,15.1 17.6,29.3l28.6,76.8l10.5,41.7c-2.3,30.5 -39.1,54.6 -69.6,54.6l-415.3,0c-30.5,0 -67.2,-24.1 -69.6,-54.6l10.6,-41.7l0,0l0,0zm19.7,355.9c-35.3,0 -63.9,-28.6 -63.9,-63.9c0,-35.3 28.6,-63.9 63.9,-63.9c35.3,0 63.9,28.6 63.9,63.9c0,35.3 -28.6,63.9 -63.9,63.9l0,0l0,0zm285.2,-47.1l0,0c0,10.5 -5.7,19 -12.8,19l-120.1,0c-7.1,0 -12.8,-8.5 -12.8,-19l0,-53.4c0,-10.5 5.7,-19 12.8,-19l120.1,0c7.1,0 12.8,8.5 12.8,19l0,53.4l0,0l0,0z" id="svg_2" fill="#757575"/>
   <path d="m726.3,351.9c-145.6,0 -263.7,118 -263.7,263.7c0,145.6 118,263.7 263.7,263.7c145.7,0 263.7,-118 263.7,-263.7c0,-145.7 -118,-263.7 -263.7,-263.7l0,0zm32.8,426.9l-60.5,0.2l-0.4,-133l-133.2,0.3l-0.1,-60.5l133.1,-0.4l-0.4,-133.2l60.5,-0.2l0.4,133.1l133.1,-0.4l0.2,60.5l-133.1,0.4l0.4,133.2l0,0z" id="svg_3" fill="#757575"/>
  </g>
 </g>
</svg>