<svg id="Capa_1" enable-background="new 0 0 512 512" height="512" viewBox="0 0 512 512" width="512" xmlns="http://www.w3.org/2000/svg"><path d="m295.003 234.343 194.845 13.442c-4.334-131.505-112.289-236.785-244.848-236.785-78.134 0-147.723 36.577-192.584 93.541z" fill="#67e5ee"/><path d="m34.371 381.184c42.732 71.743 121.061 119.816 210.629 119.816 89.569 0 167.897-48.073 210.629-119.816z" fill="#74727f"/><path d="m212.434 381.184h-178.063c36.123 60.648 97.685 104.378 169.97 116.454-47.821-22.695-43.992-99.861 8.093-116.454z" fill="#5f5e6a"/><path d="m456.788 287.498c-4.216 0-8.203-1.92-10.831-5.216l-14.592-18.298c-1.957-2.454-3.022-5.499-3.022-8.638 0-7.651 6.203-13.854 13.854-13.854h44.662c-7.558-9.412-17.756-16.527-29.478-20.238-38.261-12.112-97.565-15.966-127.083-17.168-11.54-.47-22.471-5.144-30.89-13.05-31.804-29.864-65.032-54.617-87.186-70.051-16.163-11.26-35.388-17.279-55.086-17.279h-104.049c-5.781 7.275-11.147 14.894-16.085 22.807l-34.453 94.13-.003-.002c-1.67 11.547-2.546 23.35-2.546 35.359 0 40.897 10.034 79.445 27.754 113.34h472.856v-81.841h-43.822z" fill="#319df5"/><path d="m139.432 302.77v-82.126-89.691c0-2.607-.841-5.163-2.456-7.21-8.42-10.67-.691-17.713 1.763-19.552-3.143-.31-6.306-.484-9.485-.484h-76.167c-5.781 7.275-11.147 14.894-16.085 22.807l-34.453 94.13-.003-.002c-1.67 11.546-2.546 23.349-2.546 35.358 0 40.897 10.034 79.445 27.754 113.34h173.528c-63.573-.006-61.85-66.57-61.85-66.57z" fill="#0c88ed"/><path d="m303.546 348.509c-4.718 0-8.543-3.825-8.543-8.542v-105.624c0-4.718 3.824-8.543 8.543-8.543 4.718 0 8.542 3.825 8.542 8.543v105.624c0 4.717-3.824 8.542-8.542 8.542z" fill="#0c88ed"/><path d="m288.001 211.281c-1.437-1.154-2.834-2.367-4.187-3.637-30.764-28.885-62.994-52.904-84.615-67.966-12.387-8.629-26.932-13.19-42.065-13.19h-120.122c-17.527 28.088-29.522 59.978-34.463 94.156h282.177c.06 0 .119-.001.178-.001 4.864-.077 6.891-6.316 3.097-9.362z" fill="#363540"/><path d="m136.486 127.113c-3.146-.407-6.332-.625-9.546-.625h-89.928c-17.527 28.088-29.522 59.978-34.463 94.156h134.569v-89.691c0-1.313-.214-2.612-.632-3.84z" fill="#21212b"/><path d="m375.321 308.064c33.787 0 61.274 27.488 61.274 61.275h24.461c0-47.35-38.385-85.735-85.735-85.735s-85.735 38.385-85.735 85.735h24.461c-.001-33.787 27.486-61.275 61.274-61.275z" fill="#0c88ed"/><path d="m346.791 312.113c.316-1.946-.745-3.857-2.567-4.61-6.78-2.802-6.839-9.07-6.18-12.802.15-.846.024-1.685-.306-2.432-28.51 13.929-48.153 43.202-48.153 77.07h24.461c0-23.381 13.167-43.738 32.472-54.064.012-1.14.12-2.218.273-3.162z" fill="#0f74d8"/><path d="m288.001 211.281c-1.437-1.154-2.834-2.367-4.187-3.637-9.736-9.142-19.618-17.792-29.265-25.829.018.056 8.742 26.694-18.945 38.83h49.123c.06 0 .119-.001.178-.001 4.863-.078 6.89-6.317 3.096-9.363z" fill="#21212b"/><path d="m113.805 126.488h25.782v94.157h-25.782z" fill="#5f5e6a"/><path d="m89.162 126.488h25.782v94.157h-25.782z" fill="#4b4a55"/><path d="m294.714 200.275h-19.713c-5.401 0-9.82 4.419-9.82 9.82v31.967c0 5.401 4.419 9.82 9.82 9.82h19.713c12.196 0 22.174-9.979 22.174-22.174v-7.258c0-12.196-9.978-22.175-22.174-22.175z" fill="#eeefeb"/><path d="m282.514 229.707v-7.258c0-10.482 7.373-19.319 17.187-21.598-1.605-.373-3.273-.576-4.987-.576h-19.713c-5.401 0-9.82 4.419-9.82 9.82v31.967c0 5.401 4.419 9.82 9.82 9.82h19.713c1.714 0 3.382-.204 4.987-.576-9.813-2.28-17.187-11.117-17.187-21.599z" fill="#d6d6d0"/><path d="m183.97 259.94h-23.349c-4.718 0-8.543-3.825-8.543-8.542 0-4.718 3.824-8.542 8.543-8.542h23.349c4.718 0 8.542 3.825 8.542 8.542s-3.824 8.542-8.542 8.542z" fill="#eeefeb"/><path d="m31.892 259.94h-23.35c-4.718 0-8.542-3.825-8.542-8.542 0-4.718 3.824-8.542 8.542-8.542h23.349c4.718 0 8.542 3.825 8.542 8.542.001 4.717-3.823 8.542-8.541 8.542z" fill="#eeefeb"/><path d="m495.491 313.337h-6.468c-6.992 0-12.712 5.72-12.712 12.712v12.163c0 6.992 5.72 12.712 12.712 12.712h6.468c6.992 0 12.712-5.72 12.712-12.712v-12.163c0-6.991-5.72-12.712-12.712-12.712z" fill="#ffc743"/><path d="m355.958 255.462h-12.529c-4.718 0-8.543-3.825-8.543-8.542 0-4.718 3.824-8.543 8.543-8.543h12.529c4.718 0 8.543 3.825 8.543 8.543 0 4.717-3.824 8.542-8.543 8.542z" fill="#ffc743"/><path d="m314.046 368.201h-286.893c5.12 9.921 10.901 19.443 17.278 28.517h276.679c-4.502-8.525-7.064-18.225-7.064-28.517z" fill="#4b4a55"/><path d="m497.742 368.201h-61.147c0 10.292-2.562 19.992-7.064 28.516h68.211c7.875 0 14.258-6.384 14.258-14.258 0-7.875-6.384-14.258-14.258-14.258z" fill="#4b4a55"/><path d="m375.321 436.293c-36.917 0-66.953-30.035-66.953-66.953 0-36.917 30.035-66.953 66.953-66.953 36.917 0 66.953 30.035 66.953 66.953-.001 36.917-30.036 66.953-66.953 66.953z" fill="#21212b"/><path d="m416.355 422.187c-.055-.006-.107-.015-.163-.02-13.321-1.39-14.727-9.462-14.346-14.257.158-1.98-1.048-3.77-2.92-4.434-6.203-2.201-7.079-7.132-6.911-10.379.095-1.85-1.082-3.544-2.831-4.154-27.278-9.517-25.876-32.144-24.111-41.15.395-2.016-.706-3.984-2.595-4.792-5.563-2.379-5.909-7.456-5.387-10.925.3-1.996-.867-3.875-2.741-4.623-8.132-3.246-8.295-10.809-7.558-15.339.176-1.084-.087-2.149-.66-3.018-22.333 10.865-37.764 33.785-37.764 60.244 0 36.918 30.035 66.953 66.953 66.953 15.454 0 29.69-5.278 41.034-14.106z"/><ellipse cx="375.321" cy="369.34" fill="#d6d6d0" rx="35.555" ry="35.555" transform="matrix(.121 -.993 .993 .121 -36.766 697.153)"/><path d="m392.015 393.097c.095-1.85-1.082-3.544-2.831-4.154-27.278-9.517-25.876-32.144-24.111-41.15.395-2.016-.706-3.984-2.595-4.792-2.538-1.085-3.982-2.734-4.761-4.533-10.712 6.133-17.951 17.669-17.951 30.872 0 19.605 15.95 35.555 35.555 35.555 6.736 0 13.04-1.883 18.414-5.15-1.54-2.194-1.82-4.717-1.72-6.648z" fill="#c6c6c1"/><path d="m375.32 413.437c-24.315 0-44.097-19.782-44.097-44.098 0-24.315 19.782-44.098 44.097-44.098 24.316 0 44.098 19.782 44.098 44.098.001 24.316-19.781 44.098-44.098 44.098zm0-71.11c-14.895 0-27.012 12.118-27.012 27.012 0 14.895 12.117 27.013 27.012 27.013s27.013-12.118 27.013-27.013c.001-14.894-12.118-27.012-27.013-27.012z" fill="#eeefeb"/><path d="m398.926 403.476c-6.203-2.201-7.079-7.132-6.911-10.379.04-.768-.15-1.504-.499-2.152-4.516 3.393-10.124 5.407-16.195 5.407-14.895 0-27.012-12.118-27.012-27.013 0-11.019 6.635-20.512 16.116-24.709-.465-.699-1.125-1.278-1.947-1.629-5.563-2.379-5.909-7.456-5.387-10.925.142-.947-.054-1.864-.492-2.651-14.979 7.054-25.376 22.29-25.376 39.914 0 24.315 19.782 44.098 44.097 44.098 9.607 0 18.5-3.098 25.751-8.333-.513-.731-1.25-1.311-2.145-1.628z" fill="#d6d6d0"/><path d="m486.58 241.146h-45.264c-7.767 0-14.063 6.296-14.063 14.063 0 3.186 1.082 6.277 3.068 8.768l14.812 18.574c2.668 3.346 6.715 5.295 10.995 5.295h44.483v-7.32c0-8.692-1.821-17.287-5.344-25.232-2.276-5.13-5.209-9.878-8.687-14.148z" fill="#d6d6d0"/><path d="m487.135 241.876c-11.222 2.727-19.556 12.836-19.556 24.898 0 8.735 4.374 16.445 11.047 21.071h21.984v-7.32c0-8.692-1.821-17.287-5.344-25.232-2.149-4.845-4.903-9.334-8.131-13.417z" fill="#eeefeb"/><path d="m187.647 368.201h-160.494c5.12 9.921 10.901 19.443 17.278 28.517h143.215c-15.413-15.415.001-28.517.001-28.517z" fill="#363540"/></svg>